HIERARCHY
ROOT root
{
	OFFSET	0	13.1	24.9
	CHANNELS 6  Xposition Yposition Zposition Xrotation Yrotation Zrotation
	JOINT spine_1
	{
		OFFSET	0	9.99999	0
		CHANNELS 3  Xrotation Yrotation Zrotation
		JOINT spine_2
		{
			OFFSET	0	112	-10
			CHANNELS 3  Xrotation Yrotation Zrotation
			JOINT spine_3
			{
				OFFSET	0	206.5	19.3
				CHANNELS 3  Xrotation Yrotation Zrotation
				JOINT spine_4
				{
					OFFSET	0	110.4	14.6
					CHANNELS 3  Xrotation Yrotation Zrotation
					JOINT neck_1
					{
						OFFSET	0	71.8	-50.3
						CHANNELS 3  Xrotation Yrotation Zrotation
						JOINT neck_2
						{
							OFFSET	0	86.2	-25.8
							CHANNELS 3  Xrotation Yrotation Zrotation
							JOINT head_ee
							{
								OFFSET	0	179.8	-8.7
								CHANNELS 3  Xrotation Yrotation Zrotation
								End Site
								{
									OFFSET	1	0	0
								}
							}
						}
					}
					JOINT left_clavicle
					{
						OFFSET	-43.2	22.4	-70.8
						CHANNELS 3  Xrotation Yrotation Zrotation
						JOINT left_shoulder
						{
							OFFSET	-93.9	-5.79999	48.7
							CHANNELS 3  Xrotation Yrotation Zrotation
							JOINT left_elbow
							{
								OFFSET	-291.4	-30.8	15.2
								CHANNELS 3  Xrotation Yrotation Zrotation
								JOINT left_lowarm_twist
								{
									OFFSET	-110.7	-3.89999	13.6
									CHANNELS 3  Xrotation Yrotation Zrotation
									JOINT left_hand
									{
										OFFSET	-110.7	-3.89999	13.6
										CHANNELS 3  Xrotation Yrotation Zrotation
										JOINT left_ee
										{
											OFFSET	-80.8	-5.10001	12.1
											CHANNELS 3  Xrotation Yrotation Zrotation
											End Site
											{
												OFFSET	1	0	0
											}
										}
									}
								}
							}
						}
					}
					JOINT right_clavicle
					{
						OFFSET	43.2	22.4	-70.8
						CHANNELS 3  Xrotation Yrotation Zrotation
						JOINT right_shoulder
						{
							OFFSET	93.9	-5.79999	48.7
							CHANNELS 3  Xrotation Yrotation Zrotation
							JOINT right_elbow
							{
								OFFSET	291.4	-30.8	15.2
								CHANNELS 3  Xrotation Yrotation Zrotation
								JOINT right_lowarm_twist
								{
									OFFSET	110.7	-3.89999	13.6
									CHANNELS 3  Xrotation Yrotation Zrotation
									JOINT right_hand
									{
										OFFSET	110.7	-3.89999	13.6
										CHANNELS 3  Xrotation Yrotation Zrotation
										JOINT right_ee
										{
											OFFSET	80.8	-5.10001	12.1
											CHANNELS 3  Xrotation Yrotation Zrotation
											End Site
											{
												OFFSET	1	0	0
											}
										}
									}
								}
							}
						}
					}
				}
			}
		}
	}
	JOINT left_hip
	{
		OFFSET	-82.8	-127.5	0.300001
		CHANNELS 3  Xrotation Yrotation Zrotation
		JOINT left_knee
		{
			OFFSET	-28.2	-396.7	2.2
			CHANNELS 3  Xrotation Yrotation Zrotation
			JOINT left_ankle
			{
				OFFSET	-11.7	-411.3	35.4
				CHANNELS 3  Xrotation Yrotation Zrotation
				JOINT left_toes
				{
					OFFSET	0	-60	-88.6
					CHANNELS 3  Xrotation Yrotation Zrotation
					JOINT left_foot_ee
					{
						OFFSET	-22.5	-16.5	-42.2
						CHANNELS 3  Xrotation Yrotation Zrotation
						End Site
						{
							OFFSET	1	0	0
						}
					}
				}
			}
		}
	}
	JOINT right_hip
	{
		OFFSET	82.8	-127.5	0.300001
		CHANNELS 3  Xrotation Yrotation Zrotation
		JOINT right_knee
		{
			OFFSET	28.2	-396.7	2.2
			CHANNELS 3  Xrotation Yrotation Zrotation
			JOINT right_ankle
			{
				OFFSET	11.7	-411.3	35.4
				CHANNELS 3  Xrotation Yrotation Zrotation
				JOINT right_toes
				{
					OFFSET	0	-60	-88.6
					CHANNELS 3  Xrotation Yrotation Zrotation
					JOINT right_foot_ee
					{
						OFFSET	22.5	-16.5	-42.2
						CHANNELS 3  Xrotation Yrotation Zrotation
						End Site
						{
							OFFSET	1	0	0
						}
					}
				}
			}
		}
	}
}
MOTION
Frames: 9
Frame Time: 0.02
1782.24 756.199 -717.961 -163.318 -74.8885 -167.615 0.710748 0.551342 1.3952 0.711712 0.461454 1.42745 0.723745 0.170064 1.4905 0.720872 0.403301 1.44495 -9.43783 7.01029 0.840062 -9.4775 12.5944 2.51264 -0.0 0.0 -0.0 -1.43927 13.194 -0.815955 3.37001 -17.3418 67.0697 1.90165 -43.2856 0.75462 12.5144 0.270126 -1.57261 -0.635766 17.3898 3.19242 -0.0 0.0 -0.0 7.30052 9.05127 -14.0583 -20.2136 25.3468 -59.0585 0.907185 24.1985 -0.194475 -2.48386 0.0941125 -0.303184 -1.07127 -3.96027 5.41143 0.0 0.0 0.0 0.896083 15.7351 3.67837 5.55088 -0.26805 -0.809082 -13.8668 22.913 2.14185 25.5244 -0.0 -0.0 -0.0 0.0 -0.0 15.4694 -5.11933 5.38455 -16.773 -0.3201 -2.54491 10.6756 12.9044 1.61866 -0.795397 0.0 0.0 0.0 0.0 0.0 
1786.27 756.212 -713.232 -163.068 -75.4838 -167.141 0.711024 0.505278 1.29565 0.711859 0.421815 1.32517 0.722075 0.151379 1.38241 0.719597 0.367786 1.34117 -9.38312 7.15552 0.715947 -9.42456 12.9486 2.42097 -0.0 0.0 -0.0 -1.39534 13.5337 -0.692244 3.53933 -16.958 66.5319 2.04109 -45.3109 0.852016 12.643 0.271108 -1.58901 -0.633884 15.8965 2.57958 -0.0 0.0 -0.0 7.34649 9.45556 -14.1416 -20.5022 25.4379 -59.3475 0.838855 22.5649 -0.167355 -2.3515 0.088766 -0.287131 -1.04884 -3.91954 5.28102 0.0 0.0 0.0 0.781874 15.7623 3.40998 5.01962 -0.23901 -0.732791 -13.8866 22.8871 2.14469 25.7498 -0.0 -0.0 -0.0 0.0 -0.0 14.7943 -5.71648 5.4597 -16.9024 -0.319656 -2.56475 10.8742 12.2742 1.64074 -0.459265 0.0 0.0 0.0 0.0 0.0 
1791.52 742.187 -709.1 -163.458 -76.1738 -167.436 0.683826 0.482042 1.2777 0.684645 0.399769 1.30578 0.694205 0.132935 1.35911 0.691793 0.345894 1.32107 -9.34396 7.44322 0.249803 -9.39098 13.8057 2.0311 -0.0 0.0 -0.0 -1.43254 13.6984 -0.728375 3.71555 -17.1132 66.341 2.21683 -47.6721 0.979504 13.043 0.273924 -1.64003 -0.506085 13.0591 2.18582 -0.0 0.0 -0.0 7.38318 11.5146 -14.1384 -19.4185 25.4799 -59.5577 0.798405 21.579 -0.152155 -1.5261 0.0562649 -0.186756 -0.807688 -4.09634 3.60853 0.0 0.0 0.0 0.143446 15.5798 3.32123 3.26171 -0.147994 -0.478525 -13.6868 22.1638 2.1069 27.5626 -0.0 -0.0 -0.0 0.0 -0.0 13.8254 -6.34495 4.32568 -16.3973 -0.321137 -2.48727 11.2521 11.6267 1.68833 -0.387847 0.0 0.0 0.0 0.0 0.0 
1799.06 745.974 -706.058 -163.925 -76.393 -167.761 0.580478 0.595696 1.26178 0.581216 0.514206 1.29712 0.593374 0.244433 1.37373 0.591033 0.458303 1.31791 -10.5928 7.58637 0.363846 -10.6687 14.074 2.32843 -0.0 0.0 -0.0 -1.60271 13.9755 -0.964034 1.61589 -17.2153 66.1022 2.59047 -52.0629 1.26538 13.8507 0.278525 -1.74309 -0.415382 10.5233 1.69855 -0.0 0.0 -0.0 7.42283 12.9565 -14.1561 -18.9713 25.9102 -60.2999 0.758837 20.6015 -0.137916 -1.1693 0.0426642 -0.143226 -0.626626 -5.01128 2.01844 0.0 0.0 0.0 3.31063 14.4693 1.96497 -0.477059 0.0193496 0.0706526 -14.2883 23.4156 2.2128 29.1793 -0.0 -0.0 -0.0 0.0 -0.0 12.9928 -6.09435 3.45755 -15.9387 -0.32189 -2.41691 12.942 11.2581 1.9241 -0.1678 0.0 0.0 0.0 0.0 0.0 
1804.5 745.135 -702.88 -164.444 -76.6327 -167.92 0.514332 0.582428 1.29221 0.515122 0.499029 1.32664 0.527227 0.222039 1.39988 0.524762 0.440318 1.34726 -11.4667 7.91715 0.832516 -11.5656 14.4461 2.97929 -0.0 0.0 -0.0 -1.76682 14.0725 -1.21645 0.337181 -17.2912 65.5839 2.90381 -55.1827 1.51776 14.4217 0.280901 -1.81599 -0.368755 8.52018 1.15732 -0.0 0.0 -0.0 7.48243 14.5929 -14.1982 -18.8318 26.679 -60.6486 0.729734 19.8743 -0.127848 -0.845343 0.0305511 -0.103631 -0.450951 -6.12304 0.390883 0.0 0.0 0.0 5.50057 13.6501 1.06099 -3.43342 0.12606 0.511765 -15.0174 24.8673 2.34348 30.7351 -0.0 -0.0 -0.0 0.0 -0.0 12.3813 -5.14753 2.79626 -15.6154 -0.322083 -2.36731 14.315 10.3482 2.10454 0.237378 -0.0 -0.0 0.0 0.0 0.0 
1809.85 740.361 -698.878 -161.202 -77.9575 -164.617 0.626782 0.337313 1.35162 0.627763 0.250631 1.37034 0.63419 -0.0275456 1.39279 0.631534 0.192744 1.37967 -10.9759 7.7391 0.103553 -11.0662 14.5565 2.16596 -0.0 0.0 -0.0 -1.88852 14.3916 -1.3628 -0.772336 -16.8809 65.1953 2.90403 -55.1847 1.51793 14.359 0.280676 -1.80797 -0.331476 7.0598 0.784595 -0.0 0.0 -0.0 7.42893 16.0672 -13.9947 -18.2082 27.4222 -60.684 0.716995 19.5539 -0.123551 -0.543637 0.0194718 -0.066696 -0.269586 -6.91006 -1.12442 0.0 0.0 0.0 6.57981 11.6457 0.417939 -5.51411 0.187437 0.82517 -13.5283 26.0246 2.12115 33.4804 -0.0 -0.0 -0.0 0.0 -0.0 11.6674 -1.73665 2.1805 -16.3905 -0.321152 -2.48622 16.6567 7.20097 2.3848 1.86726 -0.0 -0.0 0.0 0.0 0.0 
1818.18 748.833 -699.688 -159.568 -78.969 -163.096 0.693563 0.180753 1.4298 0.694696 0.089415 1.4384 0.697303 -0.197572 1.42757 0.69446 0.0303412 1.44086 -9.94157 8.33685 0.183487 -10.0177 15.5699 2.26535 -0.0 0.0 -0.0 -1.79882 14.4015 -1.21561 -1.34987 -16.7375 66.3264 2.5883 -52.0396 1.26367 13.9314 0.278905 -1.75338 -0.265872 5.51961 0.564379 -0.0 0.0 -0.0 7.25744 17.2254 -13.5461 -17.3548 28.9257 -62.0725 0.713498 19.4658 -0.122383 -0.359235 0.0127958 -0.0440932 -0.0683455 -7.69337 -2.75832 0.0 0.0 0.0 7.3671 9.84753 -0.00254309 -6.96877 0.223565 1.04548 -10.3075 26.9269 1.61863 36.434 -0.0 -0.0 -0.0 0.0 -0.0 10.8981 3.20161 2.07175 -17.2337 -0.318312 -2.61557 17.8299 4.50027 2.51112 3.33441 -0.0 -0.0 0.0 0.0 0.0 
1832.56 740.348 -695.531 -161.379 -79.1819 -165.432 0.65915 0.336083 1.56456 0.660481 0.235858 1.58276 0.667529 -0.0834478 1.59806 0.664006 0.16995 1.59119 -9.77528 8.86862 0.376083 -9.85562 16.4301 2.56511 -0.0 0.0 -0.0 -2.01446 14.4871 -1.55137 -1.94306 -16.0054 66.693 2.34007 -49.2097 1.07172 13.6341 0.277434 -1.71544 -0.229141 4.53042 0.388888 -0.0 0.0 -0.0 7.03497 18.6461 -12.9599 -17.164 29.8713 -62.3846 0.709905 19.3751 -0.121189 -0.0699505 0.00247003 -0.008592 0.10774 -8.24532 -4.12647 0.0 0.0 0.0 9.83017 8.4383 -0.544661 -8.33718 0.252432 1.25348 -8.04482 27.7804 1.26588 38.5345 -0.0 -0.0 -0.0 0.0 -0.0 9.45901 7.48498 1.97995 -18.1657 -0.312961 -2.75845 18.4899 2.88767 2.58197 4.54904 -0.0 -0.0 0.0 0.0 0.0 
1848.24 743.13 -692.194 -165.803 -79.055 -170.26 0.488661 0.567973 1.76141 0.490272 0.454757 1.79397 0.505402 0.0839708 1.84879 0.500827 0.37485 1.81234 -10.3505 9.58074 0.487169 -10.4648 17.7409 2.94394 -0.0 0.0 -0.0 -2.19885 14.9343 -1.7737 -3.05744 -15.4605 66.8779 2.17998 -47.1938 0.952365 13.4224 0.276267 -1.68843 -0.188616 3.86185 0.374249 -0.0 0.0 -0.0 7.00417 20.0052 -12.7869 -15.6014 30.931 -62.2359 0.730377 19.8905 -0.128067 0.116575 -0.00409296 0.0143254 0.198621 -9.43989 -5.19569 0.0 0.0 0.0 13.8149 6.99364 -0.458461 -15.521 0.322087 2.35283 -3.47522 29.0696 0.54723 40.2491 -0.0 -0.0 -0.0 0.0 -0.0 5.6491 11.5251 2.36784 -19.2029 -0.304271 -2.91737 20.455 1.43935 2.81793 5.93882 -0.0 -0.0 0.0 0.0 0.0 
